<svg width="1600" height="192" viewBox="0 0 1600 192" fill="none" xmlns="http://www.w3.org/2000/svg">
<path d="M1539.62 0C1538.51 0 1537.62 0.89543 1537.62 2C1537.62 3.10457 1538.51 4 1539.62 4V0ZM76.8222 178.414C77.6033 177.633 77.6033 176.367 76.8222 175.586L64.0943 162.858C63.3133 162.077 62.0469 162.077 61.2659 162.858C60.4848 163.639 60.4848 164.905 61.2659 165.686L72.5796 177L61.2659 188.314C60.4848 189.095 60.4848 190.361 61.2659 191.142C62.0469 191.923 63.3133 191.923 64.0943 191.142L76.8222 178.414ZM1539.62 4H1559.67V0H1539.62V4ZM1559.67 4C1571.99 4 1581.04 9.15893 1587.04 16.8661C1593.08 24.629 1596.08 35.0765 1596 45.6258C1595.91 56.1746 1592.74 66.6353 1586.64 74.4125C1580.59 82.1388 1571.62 87.2839 1559.67 87.2839V91.2839C1572.92 91.2839 1583.03 85.5186 1589.79 76.8791C1596.52 68.2906 1599.91 56.9303 1600 45.6582C1600.09 34.3865 1596.89 23.013 1590.19 14.4101C1583.46 5.75156 1573.26 0 1559.67 0V4ZM1559.67 87.2839H55.8772V91.2839H1559.67V87.2839ZM55.8772 87.2839C19.1474 87.2839 0.0665228 109.947 0.000171781 133.136C-0.0327828 144.654 4.65397 156.159 14.0474 164.769C23.4475 173.385 37.4421 179 55.8772 179V175C38.2687 175 25.2935 169.651 16.7502 161.82C8.20037 153.983 3.97037 143.559 4.00016 133.148C4.05929 112.479 21.0219 91.2839 55.8772 91.2839V87.2839ZM55.8772 179H75.408V175H55.8772V179Z" fill="#2774AC"/>
</svg>
