<svg width="60" height="52" viewBox="0 0 60 52" fill="none" xmlns="http://www.w3.org/2000/svg">
<path fill-rule="evenodd" clip-rule="evenodd" d="M4.84375 29.1875C4.84375 27.9794 5.82313 27 7.03125 27H22.3438C23.5519 27 24.5312 27.9794 24.5312 29.1875C24.5312 30.3956 23.5519 31.375 22.3438 31.375H9.21875V48.875C9.21875 50.0831 8.23937 51.0625 7.03125 51.0625C5.82313 51.0625 4.84375 50.0831 4.84375 48.875V29.1875Z" fill="#2774AC"/>
<path fill-rule="evenodd" clip-rule="evenodd" d="M0.46875 48.875C0.46875 47.6669 1.44813 46.6875 2.65625 46.6875H57.3438C58.5519 46.6875 59.5312 47.6669 59.5312 48.875C59.5312 50.0831 58.5519 51.0625 57.3438 51.0625H2.65625C1.44813 51.0625 0.46875 50.0831 0.46875 48.875Z" fill="#2774AC"/>
<path fill-rule="evenodd" clip-rule="evenodd" d="M20.1562 16.0625C20.1562 14.8544 21.1356 13.875 22.3438 13.875H37.6562C38.8644 13.875 39.8438 14.8544 39.8438 16.0625C39.8438 17.2706 38.8644 18.25 37.6562 18.25H24.5312V48.875C24.5312 50.0831 23.5519 51.0625 22.3438 51.0625C21.1356 51.0625 20.1562 50.0831 20.1562 48.875V16.0625Z" fill="#2774AC"/>
<path fill-rule="evenodd" clip-rule="evenodd" d="M35.4688 2.9375C35.4688 1.72938 36.4481 0.75 37.6562 0.75H52.9688C54.1769 0.75 55.1562 1.72938 55.1562 2.9375V48.875C55.1562 50.0831 54.1769 51.0625 52.9688 51.0625H37.6562C36.4481 51.0625 35.4688 50.0831 35.4688 48.875V2.9375ZM39.8438 5.125V46.6875H50.7812V5.125H39.8438Z" fill="#2774AC"/>
</svg>
