<svg width="58" height="58" viewBox="0 0 58 58" fill="none" xmlns="http://www.w3.org/2000/svg">
<path fill-rule="evenodd" clip-rule="evenodd" d="M42.614 20.9275C43.448 21.8017 43.4154 23.1863 42.5412 24.0203L26.4904 39.3328C25.6447 40.1396 24.3142 40.139 23.4692 39.3315L15.4574 31.6752C14.584 30.8406 14.5526 29.4559 15.3873 28.5824C16.2219 27.709 17.6066 27.6776 18.4801 28.5123L24.9818 34.7255L39.5213 20.8547C40.3954 20.0208 41.7801 20.0534 42.614 20.9275Z" fill="#2774AC"/>
<path fill-rule="evenodd" clip-rule="evenodd" d="M29 4.9375C15.7106 4.9375 4.9375 15.7106 4.9375 29C4.9375 42.2894 15.7106 53.0625 29 53.0625C42.2894 53.0625 53.0625 42.2894 53.0625 29C53.0625 15.7106 42.2894 4.9375 29 4.9375ZM0.5625 29C0.5625 13.2944 13.2944 0.5625 29 0.5625C44.7056 0.5625 57.4375 13.2944 57.4375 29C57.4375 44.7056 44.7056 57.4375 29 57.4375C13.2944 57.4375 0.5625 44.7056 0.5625 29Z" fill="#2774AC"/>
</svg>
