<svg width="50" height="60" viewBox="0 0 50 60" fill="none" xmlns="http://www.w3.org/2000/svg">
<path fill-rule="evenodd" clip-rule="evenodd" d="M14.0625 37.5625C14.0625 36.3544 15.0419 35.375 16.25 35.375H33.75C34.9581 35.375 35.9375 36.3544 35.9375 37.5625C35.9375 38.7706 34.9581 39.75 33.75 39.75H16.25C15.0419 39.75 14.0625 38.7706 14.0625 37.5625Z" fill="#2774AC"/>
<path fill-rule="evenodd" clip-rule="evenodd" d="M14.0625 28.8125C14.0625 27.6044 15.0419 26.625 16.25 26.625H33.75C34.9581 26.625 35.9375 27.6044 35.9375 28.8125C35.9375 30.0206 34.9581 31 33.75 31H16.25C15.0419 31 14.0625 30.0206 14.0625 28.8125Z" fill="#2774AC"/>
<path fill-rule="evenodd" clip-rule="evenodd" d="M2.21891 6.03141C3.03938 5.21094 4.15218 4.75 5.3125 4.75H16.25C17.4581 4.75 18.4375 5.72938 18.4375 6.9375C18.4375 8.14562 17.4581 9.125 16.25 9.125H5.3125L5.3125 55.0625H44.6875V9.125H33.75C32.5419 9.125 31.5625 8.14562 31.5625 6.9375C31.5625 5.72938 32.5419 4.75 33.75 4.75H44.6875C45.8478 4.75 46.9606 5.21094 47.7811 6.03141C48.6016 6.85188 49.0625 7.96468 49.0625 9.125V55.0625C49.0625 56.2228 48.6016 57.3356 47.7811 58.1561C46.9606 58.9766 45.8478 59.4375 44.6875 59.4375H5.3125C4.15218 59.4375 3.03938 58.9766 2.21891 58.1561C1.39844 57.3356 0.9375 56.2228 0.9375 55.0625V9.125C0.9375 7.96468 1.39844 6.85188 2.21891 6.03141Z" fill="#2774AC"/>
<path fill-rule="evenodd" clip-rule="evenodd" d="M25 4.75C22.6794 4.75 20.4538 5.67187 18.8128 7.31282C17.1719 8.95376 16.25 11.1794 16.25 13.5H33.75C33.75 11.1794 32.8281 8.95376 31.1872 7.31282C29.5462 5.67187 27.3206 4.75 25 4.75ZM15.7192 4.21922C18.1806 1.75781 21.519 0.375 25 0.375C28.481 0.375 31.8194 1.75781 34.2808 4.21922C36.7422 6.68064 38.125 10.019 38.125 13.5V15.6875C38.125 16.8956 37.1456 17.875 35.9375 17.875H14.0625C12.8544 17.875 11.875 16.8956 11.875 15.6875V13.5C11.875 10.019 13.2578 6.68064 15.7192 4.21922Z" fill="#2774AC"/>
</svg>
