<svg width="62" height="44" viewBox="0 0 62 44" fill="none" xmlns="http://www.w3.org/2000/svg">
<path fill-rule="evenodd" clip-rule="evenodd" d="M11.8083 8.14288C6.82383 10.4434 4.75 13.1807 4.75 15.4375C4.75 17.6943 6.82383 20.4316 11.8083 22.7321C16.607 24.9469 23.3901 26.375 31 26.375C38.6099 26.375 45.393 24.9469 50.1917 22.7321C55.1762 20.4316 57.25 17.6943 57.25 15.4375C57.25 13.1807 55.1762 10.4434 50.1917 8.14288C45.393 5.92811 38.6099 4.5 31 4.5C23.3901 4.5 16.607 5.92811 11.8083 8.14288ZM9.97496 4.17056C15.4686 1.63502 22.9043 0.125 31 0.125C39.0957 0.125 46.5314 1.63502 52.025 4.17056C57.3329 6.62034 61.625 10.4456 61.625 15.4375C61.625 20.4294 57.3329 24.2547 52.025 26.7044C46.5314 29.24 39.0957 30.75 31 30.75C22.9043 30.75 15.4686 29.24 9.97496 26.7044C4.66712 24.2547 0.375 20.4294 0.375 15.4375C0.375 10.4456 4.66712 6.62034 9.97496 4.17056Z" fill="#2774AC"/>
<path fill-rule="evenodd" clip-rule="evenodd" d="M31 26.375C32.2081 26.375 33.1875 27.3544 33.1875 28.5625V41.6875C33.1875 42.8956 32.2081 43.875 31 43.875C29.7919 43.875 28.8125 42.8956 28.8125 41.6875V28.5625C28.8125 27.3544 29.7919 26.375 31 26.375Z" fill="#2774AC"/>
<path fill-rule="evenodd" clip-rule="evenodd" d="M2.5625 13.25C3.77062 13.25 4.75 14.2294 4.75 15.4375V28.5625C4.75 30.571 6.51096 33.2863 11.197 35.6294C15.7427 37.9022 22.4981 39.5 31 39.5C39.5019 39.5 46.2573 37.9022 50.803 35.6294C55.489 33.2863 57.25 30.571 57.25 28.5625V15.4375C57.25 14.2294 58.2294 13.25 59.4375 13.25C60.6456 13.25 61.625 14.2294 61.625 15.4375V28.5625C61.625 33.1165 57.9172 36.9637 52.7595 39.5425C47.4615 42.1915 39.9981 43.875 31 43.875C22.0019 43.875 14.5385 42.1915 9.24047 39.5425C4.08279 36.9637 0.375 33.1165 0.375 28.5625V15.4375C0.375 14.2294 1.35438 13.25 2.5625 13.25Z" fill="#2774AC"/>
<path fill-rule="evenodd" clip-rule="evenodd" d="M48.5 23.6679C49.7081 23.6679 50.6875 24.6472 50.6875 25.8554V38.9804C50.6875 40.1885 49.7081 41.1679 48.5 41.1679C47.2919 41.1679 46.3125 40.1885 46.3125 38.9804V25.8554C46.3125 24.6472 47.2919 23.6679 48.5 23.6679Z" fill="#2774AC"/>
<path fill-rule="evenodd" clip-rule="evenodd" d="M13.5 23.6679C14.7081 23.6679 15.6875 24.6472 15.6875 25.8554V38.9804C15.6875 40.1885 14.7081 41.1679 13.5 41.1679C12.2919 41.1679 11.3125 40.1885 11.3125 38.9804V25.8554C11.3125 24.6472 12.2919 23.6679 13.5 23.6679Z" fill="#2774AC"/>
</svg>
