<svg width="54" height="54" viewBox="0 0 54 54" fill="none" xmlns="http://www.w3.org/2000/svg">
<path d="M18.25 20.4375H35.75C36.9586 20.4375 37.9375 19.4586 37.9375 18.25C37.9375 17.0414 36.9586 16.0625 35.75 16.0625H18.25C17.0414 16.0625 16.0625 17.0414 16.0625 18.25C16.0625 19.4586 17.0414 20.4375 18.25 20.4375Z" fill="#2774AC"/>
<path d="M18.25 29.1875H35.75C36.9586 29.1875 37.9375 28.2086 37.9375 27C37.9375 25.7914 36.9586 24.8125 35.75 24.8125H18.25C17.0414 24.8125 16.0625 25.7914 16.0625 27C16.0625 28.2086 17.0414 29.1875 18.25 29.1875Z" fill="#2774AC"/>
<path d="M27 33.5625H18.25C17.0414 33.5625 16.0625 34.5414 16.0625 35.75C16.0625 36.9586 17.0414 37.9375 18.25 37.9375H27C28.2086 37.9375 29.1875 36.9586 29.1875 35.75C29.1875 34.5414 28.2086 33.5625 27 33.5625Z" fill="#2774AC"/>
<path d="M53.25 34.8476V5.125C53.25 2.71328 51.2867 0.75 48.875 0.75H5.125C2.71328 0.75 0.75 2.71328 0.75 5.125V48.875C0.75 51.2867 2.71328 53.25 5.125 53.25H34.8558C35.4519 53.25 36.0261 53.1296 36.5593 52.9027C36.6468 52.8671 36.7289 52.8289 36.8109 52.7851C37.2156 52.58 37.5929 52.3121 37.9265 51.9812L51.9867 37.9211C52.3175 37.5875 52.5855 37.2101 52.7878 36.8054C52.8316 36.7289 52.8671 36.6468 52.9 36.5648C53.1296 36.0289 53.2527 35.4465 53.25 34.8476ZM5.125 5.125H48.875L48.8859 33.5625H35.75C34.5414 33.5625 33.5625 34.5414 33.5625 35.75V48.875H5.125V5.125ZM45.7824 37.9375L37.9375 45.7824V37.9375H45.7824Z" fill="#2774AC"/>
</svg>
