<svg width="66" height="49" viewBox="0 0 66 49" fill="none" xmlns="http://www.w3.org/2000/svg">
<path fill-rule="evenodd" clip-rule="evenodd" d="M37.3749 16.5312C37.3749 15.3231 38.3543 14.3437 39.5624 14.3437H48.3124C49.5206 14.3437 50.4999 15.3231 50.4999 16.5312C50.4999 17.7393 49.5206 18.7187 48.3124 18.7187H39.5624C38.3543 18.7187 37.3749 17.7393 37.3749 16.5312Z" fill="#2774AC"/>
<path fill-rule="evenodd" clip-rule="evenodd" d="M15.4999 16.5312C15.4999 15.3231 16.4793 14.3437 17.6874 14.3437H26.4374C27.6456 14.3437 28.6249 15.3231 28.6249 16.5312C28.6249 17.7393 27.6456 18.7187 26.4374 18.7187H17.6874C16.4793 18.7187 15.4999 17.7393 15.4999 16.5312Z" fill="#2774AC"/>
<path fill-rule="evenodd" clip-rule="evenodd" d="M22.0624 9.9687C23.2706 9.9687 24.2499 10.9481 24.2499 12.1562V20.9062C24.2499 22.1143 23.2706 23.0937 22.0624 23.0937C20.8543 23.0937 19.8749 22.1143 19.8749 20.9062V12.1562C19.8749 10.9481 20.8543 9.9687 22.0624 9.9687Z" fill="#2774AC"/>
<path fill-rule="evenodd" clip-rule="evenodd" d="M45.0313 0.0429688C49.3825 0.0429688 53.5555 1.77148 56.6323 4.84825C59.7091 7.92502 61.4376 12.098 61.4376 16.4492C61.4376 20.8004 59.7091 24.9734 56.6323 28.0502C53.5568 31.1257 49.3859 32.8541 45.0366 32.8555H45.0313L28.2334 32.933L17.0683 45.287L15.4454 43.8203L16.9953 45.3639C15.5151 46.8502 13.5989 47.8248 11.5259 48.1456C9.45297 48.4664 7.33175 48.1166 5.47154 47.1472C3.61133 46.1779 2.10941 44.6397 1.18476 42.7568C0.260107 40.874 -0.0389179 38.745 0.331284 36.6803L0.33739 36.6477L4.81833 13.6693C5.49495 9.88074 7.4798 6.44961 10.4271 3.97432C13.3789 1.49526 17.1083 0.132745 20.9629 0.125007M45.0313 4.41797L20.973 4.5C18.1441 4.50538 15.4071 5.50519 13.2408 7.32453C11.0745 9.14388 9.6168 11.6669 9.1227 14.4524L6.96882 14.0703L9.11588 14.489L4.63495 37.4674C4.43339 38.6098 4.6003 39.7868 5.11176 40.8283C5.62546 41.8743 6.45986 42.7289 7.49331 43.2674C8.52676 43.8059 9.70521 44.0003 10.8569 43.822C11.9925 43.6463 13.0435 43.1174 13.861 42.311L25.635 29.2833C26.0474 28.827 26.6328 28.5654 27.2478 28.5625L45.0212 28.4805L45.0313 28.4805C48.2222 28.4805 51.2824 27.2129 53.5387 24.9566C55.795 22.7003 57.0626 19.6401 57.0626 16.4492C57.0626 13.2583 55.795 10.1981 53.5387 7.94184C51.2832 5.68639 48.2245 4.41892 45.0349 4.41797L45.0313 4.41797Z" fill="#2774AC"/>
<path fill-rule="evenodd" clip-rule="evenodd" d="M58.614 11.841C59.7999 11.6105 60.9481 12.3851 61.1785 13.571L65.6629 36.6492L65.6687 36.6804C66.039 38.7451 65.7399 40.874 64.8153 42.7568C63.8906 44.6397 62.3887 46.1779 60.5285 47.1473C58.6683 48.1166 56.5471 48.4664 54.4741 48.1456C52.4012 47.8248 50.4849 46.8502 49.0047 45.3639L50.5546 43.8203L48.9287 45.2837L37.1162 32.1587C36.308 31.2607 36.3808 29.8776 37.2788 29.0694C38.1768 28.2612 39.5599 28.334 40.3681 29.232L52.1405 42.3124C52.9578 43.118 54.0082 43.6464 55.1432 43.8221C56.2948 44.0003 57.4733 43.806 58.5067 43.2674C59.5402 42.7289 60.3746 41.8743 60.8883 40.8283C61.3998 39.7866 61.5667 38.6094 61.365 37.4668L56.8839 14.4055C56.6534 13.2196 57.428 12.0714 58.614 11.841Z" fill="#2774AC"/>
</svg>
