<svg width="70" height="48" viewBox="0 0 70 48" fill="none" xmlns="http://www.w3.org/2000/svg">
<path fill-rule="evenodd" clip-rule="evenodd" d="M58.1177 5.47689L64.8345 18.3371L64.8399 18.3474L60.0072 20.754L53.2831 7.89416L58.1177 5.47689ZM66.7915 22.263L60.0376 25.6263C58.9712 26.1573 57.676 25.7374 57.124 24.6817L48.374 7.94737C48.102 7.42716 48.0505 6.81944 48.2311 6.26087C48.4117 5.7023 48.8092 5.23975 49.3342 4.97722L56.1639 1.56238C57.1843 1.04516 58.3677 0.950946 59.4573 1.30045C60.5491 1.65063 61.4583 2.41786 61.987 3.43506C61.9875 3.43605 61.9881 3.43705 61.9886 3.43804L68.707 16.3014C68.708 16.3034 68.7091 16.3054 68.7102 16.3074C68.9811 16.8214 69.1469 17.3842 69.198 17.963C69.2492 18.5441 69.1838 19.1296 69.0054 19.685C68.8271 20.2404 68.5395 20.7545 68.1595 21.1971C67.7795 21.6398 67.3135 22.0026 66.7915 22.263Z" fill="#2774AC"/>
<path fill-rule="evenodd" clip-rule="evenodd" d="M11.8932 5.18155L5.17098 18.0521L9.99424 20.4735L16.7177 7.59382L11.8932 5.18155ZM10.5215 1.02705C11.6043 0.669538 12.7838 0.748877 13.809 1.24817L13.8294 1.25814L20.6653 4.67622C21.1901 4.93863 21.5876 5.40091 21.7682 5.95918C21.9489 6.51744 21.8978 7.1249 21.6262 7.64507L12.8762 24.4068C12.3234 25.4658 11.0232 25.8854 9.95559 25.3495L3.20954 21.9628C2.69057 21.7066 2.22792 21.3494 1.84876 20.9121C1.46695 20.4717 1.17759 19.959 0.997896 19.4045C0.818202 18.85 0.751838 18.265 0.80275 17.6844C0.853402 17.1067 1.01911 16.545 1.29008 16.0324L8.01208 3.16223C8.01245 3.16153 8.01282 3.16082 8.01318 3.16011C8.53961 2.14962 9.4395 1.38432 10.5215 1.02705Z" fill="#2774AC"/>
<path fill-rule="evenodd" clip-rule="evenodd" d="M9.21327 22.0485C9.95667 21.0961 11.3313 20.9268 12.2836 21.6702L27.2407 33.346L27.2735 33.3721L43.0224 37.3093C43.0396 37.3113 43.0572 37.3099 43.074 37.3052C43.0907 37.3006 43.1063 37.2929 43.12 37.2825L53.0787 27.3239L57.3967 22.2502C58.1797 21.3302 59.5603 21.2191 60.4804 22.0021C61.4004 22.7851 61.5115 24.1657 60.7285 25.0857L56.3535 30.2263C56.3155 30.2709 56.2758 30.314 56.2344 30.3554L46.1719 40.4179C46.1625 40.4273 46.153 40.4366 46.1434 40.4459C46.1354 40.4536 46.1273 40.4612 46.1192 40.4688C45.5868 40.9666 44.9418 41.3281 44.2393 41.5222C43.5367 41.7163 42.7976 41.7374 42.0852 41.5835C42.0622 41.5785 42.0393 41.5732 42.0164 41.5675L26.1571 37.6026C26.138 37.5979 26.1191 37.5929 26.1002 37.5876C25.5291 37.4284 24.9963 37.1548 24.5343 36.7835L9.59155 25.1188C8.63923 24.3754 8.46987 23.0008 9.21327 22.0485Z" fill="#2774AC"/>
<path fill-rule="evenodd" clip-rule="evenodd" d="M39.1876 9.1212L28.4987 19.7828C28.497 19.785 28.4957 19.7875 28.4947 19.7901C28.4934 19.7937 28.4928 19.7976 28.4931 19.8015C28.4934 19.8053 28.4945 19.8091 28.4964 19.8125C28.4982 19.8159 28.5008 19.8189 28.5038 19.8212L29.9716 20.9356C31.1088 21.7821 32.4887 22.2394 33.9065 22.2394C35.3262 22.2394 36.7079 21.7809 37.846 20.9322C37.8467 20.9317 37.8474 20.9312 37.8481 20.9306L41.344 18.3087C42.1122 17.7325 43.1665 17.7248 43.9431 18.2896L55.9744 27.0396C56.9514 27.7502 57.1674 29.1183 56.4568 30.0953C55.7463 31.0724 54.3782 31.2884 53.4011 30.5778L42.6765 22.7781L40.4649 24.4368C38.5706 25.8506 36.2702 26.6144 33.9065 26.6144C31.5428 26.6144 29.2424 25.8506 27.3481 24.4368L27.3336 24.426L25.8571 23.3048C25.3608 22.9275 24.9492 22.4483 24.6517 21.9004C24.3542 21.3525 24.1764 20.7477 24.1302 20.126C24.0839 19.5043 24.1703 18.8798 24.3835 18.294C24.5967 17.7081 24.9319 17.1742 25.3669 16.7277L25.389 16.7052L36.1096 6.01198C36.5149 5.60874 36.9957 5.28937 37.5245 5.07217C38.052 4.85554 38.6168 4.74479 39.187 4.7462C39.1885 4.7462 39.19 4.74621 39.1915 4.74621L39.1838 6.9337V4.7462H39.187H50.3127C51.5209 4.7462 52.5002 5.72558 52.5002 6.9337C52.5002 8.14182 51.5209 9.1212 50.3127 9.1212H39.1876Z" fill="#2774AC"/>
<path fill-rule="evenodd" clip-rule="evenodd" d="M34.4819 4.63406L43.9398 8.92565C45.0399 9.42486 46.3365 8.93769 46.8357 7.83753C47.3349 6.73736 46.8477 5.44082 45.7476 4.94162L36.2866 0.648644L36.2836 0.647293C35.3387 0.220205 34.2727 0.142678 33.2758 0.428543L19.2376 4.53327C18.078 4.87232 17.4128 6.0872 17.7519 7.24677C18.091 8.40634 19.3058 9.07149 20.4654 8.73244L34.4819 4.63406Z" fill="#2774AC"/>
<path fill-rule="evenodd" clip-rule="evenodd" d="M13.6599 35.8793C14.4515 34.9666 15.8331 34.8684 16.7458 35.6599L22.9179 41.0128C22.922 41.0138 22.926 41.0148 22.9301 41.0158L31.1606 43.0939C32.3319 43.3897 33.0417 44.579 32.746 45.7504C32.4502 46.9217 31.2609 47.6316 30.0895 47.3358L21.8809 45.2632C21.2013 45.1041 20.5717 44.7786 20.049 44.3158L13.8793 38.9651C12.9666 38.1736 12.8684 36.792 13.6599 35.8793Z" fill="#2774AC"/>
</svg>
