<svg width="910" height="555" viewBox="0 0 910 555" fill="none" xmlns="http://www.w3.org/2000/svg">
<path d="M148 545C148 550.523 143.523 555 138 555C132.477 555 128 550.523 128 545C128 539.477 132.477 535 138 535C143.523 535 148 539.477 148 545ZM129.563 545C129.563 549.66 133.34 553.437 138 553.437C142.66 553.437 146.437 549.66 146.437 545C146.437 540.34 142.66 536.563 138 536.563C133.34 536.563 129.563 540.34 129.563 545Z" fill="white"/>
<path d="M631 10C631 15.5228 626.523 20 621 20C615.477 20 611 15.5228 611 10C611 4.47715 615.477 0 621 0C626.523 0 631 4.47715 631 10ZM612.563 10C612.563 14.6596 616.34 18.437 621 18.437C625.66 18.437 629.437 14.6596 629.437 10C629.437 5.34037 625.66 1.56299 621 1.56299C616.34 1.56299 612.563 5.34037 612.563 10Z" fill="white"/>
<line x1="0.5" y1="534.241" x2="225.853" y2="404.134" stroke="white" stroke-width="2"/>
<line x1="683.5" y1="149.241" x2="908.853" y2="19.1337" stroke="white" stroke-width="2"/>
</svg>
