<svg width="40" height="62" viewBox="0 0 40 62" fill="none" xmlns="http://www.w3.org/2000/svg">
<path fill-rule="evenodd" clip-rule="evenodd" d="M6.875 4.75C5.66688 4.75 4.6875 5.72938 4.6875 6.9375V55.0625C4.6875 56.2706 5.66688 57.25 6.875 57.25H33.125C34.3331 57.25 35.3125 56.2706 35.3125 55.0625V6.9375C35.3125 5.72938 34.3331 4.75 33.125 4.75H6.875ZM0.3125 6.9375C0.3125 3.31313 3.25063 0.375 6.875 0.375H33.125C36.7494 0.375 39.6875 3.31313 39.6875 6.9375V55.0625C39.6875 58.6869 36.7494 61.625 33.125 61.625H6.875C3.25063 61.625 0.3125 58.6869 0.3125 55.0625V6.9375Z" fill="#2774AC"/>
<path fill-rule="evenodd" clip-rule="evenodd" d="M0.3125 11.3125C0.3125 10.1044 1.29188 9.125 2.5 9.125H37.5C38.7081 9.125 39.6875 10.1044 39.6875 11.3125C39.6875 12.5206 38.7081 13.5 37.5 13.5H2.5C1.29188 13.5 0.3125 12.5206 0.3125 11.3125Z" fill="#2774AC"/>
<path fill-rule="evenodd" clip-rule="evenodd" d="M0.3125 50.6875C0.3125 49.4794 1.29188 48.5 2.5 48.5H37.5C38.7081 48.5 39.6875 49.4794 39.6875 50.6875C39.6875 51.8956 38.7081 52.875 37.5 52.875H2.5C1.29188 52.875 0.3125 51.8956 0.3125 50.6875Z" fill="#2774AC"/>
</svg>
