<svg width="56" height="54" viewBox="0 0 56 54" fill="none" xmlns="http://www.w3.org/2000/svg">
<path fill-rule="evenodd" clip-rule="evenodd" d="M28 19.3438C29.2081 19.3438 30.1875 20.3231 30.1875 21.5312V51.0625C30.1875 52.2706 29.2081 53.25 28 53.25C26.7919 53.25 25.8125 52.2706 25.8125 51.0625V21.5312C25.8125 20.3231 26.7919 19.3438 28 19.3438Z" fill="#2774AC"/>
<path fill-rule="evenodd" clip-rule="evenodd" d="M28 0.75C29.2081 0.75 30.1875 1.72938 30.1875 2.9375V10.5938C30.1875 11.8019 29.2081 12.7812 28 12.7812C26.7919 12.7812 25.8125 11.8019 25.8125 10.5938V2.9375C25.8125 1.72938 26.7919 0.75 28 0.75Z" fill="#2774AC"/>
<path fill-rule="evenodd" clip-rule="evenodd" d="M28 12.7812C26.1878 12.7812 24.7188 14.2503 24.7188 16.0625C24.7188 17.8747 26.1878 19.3438 28 19.3438C29.8122 19.3438 31.2812 17.8747 31.2812 16.0625C31.2812 14.2503 29.8122 12.7812 28 12.7812ZM20.3438 16.0625C20.3438 11.8341 23.7716 8.40625 28 8.40625C32.2284 8.40625 35.6562 11.8341 35.6562 16.0625C35.6562 20.2909 32.2284 23.7188 28 23.7188C23.7716 23.7188 20.3438 20.2909 20.3438 16.0625Z" fill="#2774AC"/>
<path fill-rule="evenodd" clip-rule="evenodd" d="M47.6875 41.2188C48.8956 41.2188 49.875 42.1981 49.875 43.4062V51.0625C49.875 52.2706 48.8956 53.25 47.6875 53.25C46.4794 53.25 45.5 52.2706 45.5 51.0625V43.4062C45.5 42.1981 46.4794 41.2188 47.6875 41.2188Z" fill="#2774AC"/>
<path fill-rule="evenodd" clip-rule="evenodd" d="M47.6875 0.75C48.8956 0.75 49.875 1.72938 49.875 2.9375V32.4688C49.875 33.6769 48.8956 34.6562 47.6875 34.6562C46.4794 34.6562 45.5 33.6769 45.5 32.4688V2.9375C45.5 1.72938 46.4794 0.75 47.6875 0.75Z" fill="#2774AC"/>
<path fill-rule="evenodd" clip-rule="evenodd" d="M47.6875 34.6562C45.8753 34.6562 44.4062 36.1253 44.4062 37.9375C44.4062 39.7497 45.8753 41.2188 47.6875 41.2188C49.4997 41.2188 50.9688 39.7497 50.9688 37.9375C50.9688 36.1253 49.4997 34.6562 47.6875 34.6562ZM40.0312 37.9375C40.0312 33.7091 43.4591 30.2812 47.6875 30.2812C51.9159 30.2812 55.3438 33.7091 55.3438 37.9375C55.3438 42.1659 51.9159 45.5938 47.6875 45.5938C43.4591 45.5938 40.0312 42.1659 40.0312 37.9375Z" fill="#2774AC"/>
<path fill-rule="evenodd" clip-rule="evenodd" d="M8.3125 32.4688C9.52062 32.4688 10.5 33.4481 10.5 34.6562V51.0625C10.5 52.2706 9.52062 53.25 8.3125 53.25C7.10438 53.25 6.125 52.2706 6.125 51.0625V34.6562C6.125 33.4481 7.10438 32.4688 8.3125 32.4688Z" fill="#2774AC"/>
<path fill-rule="evenodd" clip-rule="evenodd" d="M8.3125 0.75C9.52062 0.75 10.5 1.72938 10.5 2.9375V23.7188C10.5 24.9269 9.52062 25.9062 8.3125 25.9062C7.10438 25.9062 6.125 24.9269 6.125 23.7188V2.9375C6.125 1.72938 7.10438 0.75 8.3125 0.75Z" fill="#2774AC"/>
<path fill-rule="evenodd" clip-rule="evenodd" d="M8.3125 25.9062C6.50032 25.9062 5.03125 27.3753 5.03125 29.1875C5.03125 30.9997 6.50032 32.4688 8.3125 32.4688C10.1247 32.4688 11.5938 30.9997 11.5938 29.1875C11.5938 27.3753 10.1247 25.9062 8.3125 25.9062ZM0.65625 29.1875C0.65625 24.9591 4.08407 21.5312 8.3125 21.5312C12.5409 21.5312 15.9688 24.9591 15.9688 29.1875C15.9688 33.4159 12.5409 36.8438 8.3125 36.8438C4.08407 36.8438 0.65625 33.4159 0.65625 29.1875Z" fill="#2774AC"/>
</svg>
