<svg width="62" height="60" viewBox="0 0 62 60" fill="none" xmlns="http://www.w3.org/2000/svg">
<path fill-rule="evenodd" clip-rule="evenodd" d="M28.4431 1.1642C29.1924 0.639413 30.0851 0.35791 30.9999 0.35791C31.9147 0.35791 32.8074 0.639414 33.5567 1.1642C34.2959 1.68188 34.8603 2.41155 35.1756 3.25647L41.1814 18.3802L41.1994 18.427C41.2049 18.4419 41.2147 18.4549 41.2275 18.4644C41.2403 18.4739 41.2556 18.4794 41.2715 18.4803L41.285 18.4811L57.4179 19.5202C61.6057 19.7922 63.0369 25.0345 59.989 27.5682L59.9874 27.5696L47.6315 37.8753L47.6243 37.8812C47.5965 37.9042 47.5758 37.9346 47.5645 37.9688C47.5535 38.0022 47.5519 38.0379 47.5599 38.072L47.5605 38.0748L51.5496 53.7577C52.5154 57.5703 48.3986 61.0038 44.8173 58.7448L44.8118 58.7413L31.0305 49.9913C31.0218 49.9857 31.0103 49.982 30.9999 49.982C30.9895 49.982 30.9793 49.9849 30.9706 49.9905L30.9671 49.9927L18.147 58.1112L18.145 58.1125C14.2162 60.6103 9.67857 56.8128 10.7511 52.6089L14.4393 38.0748L14.4399 38.0723C14.4479 38.0381 14.4463 38.0023 14.4353 37.9688C14.424 37.9346 14.4033 37.9042 14.3755 37.8812L14.3683 37.8753L2.01247 27.5696L2.01071 27.5681C-1.03711 25.0344 0.392965 19.7922 4.58082 19.5203L20.7283 18.4803C20.7442 18.4794 20.7595 18.4739 20.7723 18.4644C20.7852 18.4549 20.7949 18.4419 20.8005 18.427L20.8184 18.3802L26.8242 3.25647C27.1396 2.41156 27.7039 1.68188 28.4431 1.1642ZM33.3768 46.2987L47.1513 55.0444C47.1763 55.0599 47.1926 55.0661 47.197 55.0674C47.2028 55.0662 47.2217 55.061 47.2477 55.0413C47.2808 55.0162 47.3019 54.9849 47.3115 54.9594C47.3158 54.9478 47.3187 54.9352 47.3196 54.9197C47.3205 54.9049 47.32 54.8774 47.3092 54.8345L43.3143 39.1284C43.107 38.2933 43.14 37.4167 43.4093 36.5995C43.6781 35.7839 44.1714 35.0607 44.8325 34.5128L44.8364 34.5095L57.1922 24.204C57.2178 24.1827 57.2286 24.1675 57.2332 24.1602C57.2383 24.1521 57.2426 24.1427 57.246 24.1298C57.2538 24.1003 57.2565 24.0494 57.2384 23.9906C57.2202 23.932 57.1933 23.9035 57.1854 23.8968L57.1809 23.8939C57.1809 23.8939 57.1681 23.8883 57.1362 23.8861L41.0174 22.8479L41.0096 22.8475C40.1479 22.7958 39.3197 22.4951 38.6257 21.9816C37.9374 21.4725 37.4104 20.776 37.1076 19.9756L31.0997 4.84648C31.0918 4.82673 31.0843 4.80687 31.077 4.7869C31.0712 4.77108 31.0608 4.75741 31.047 4.74775C31.0332 4.73809 31.0167 4.73291 30.9999 4.73291C30.9831 4.73291 30.9666 4.73809 30.9529 4.74775C30.9391 4.75741 30.9286 4.77108 30.9228 4.7869C30.9156 4.80687 30.908 4.82673 30.9002 4.84648L24.8922 19.9756C24.5894 20.776 24.0625 21.4725 23.3742 21.9816C22.6801 22.4951 21.8519 22.7958 20.9902 22.8475L4.86432 23.8861C4.83247 23.8882 4.81906 23.8938 4.81906 23.8938L4.81446 23.8968C4.80652 23.9035 4.77961 23.932 4.76148 23.9906C4.74328 24.0494 4.74601 24.1003 4.75378 24.1298C4.75719 24.1427 4.76156 24.1521 4.76664 24.1602C4.77125 24.1675 4.78207 24.1827 4.80767 24.204L4.81121 24.2069L17.1634 34.5095L17.1677 34.5131C17.8286 35.061 18.3218 35.7841 18.5905 36.5995C18.8598 37.4167 18.8927 38.2933 18.6855 39.1284L18.6827 39.1397L14.9904 53.6901C14.9114 53.9994 15.0204 54.239 15.2202 54.3909C15.3225 54.4687 15.4258 54.5021 15.5074 54.5078C15.5749 54.5125 15.6684 54.5028 15.7982 54.4202L28.623 46.2987L28.6265 46.2965C29.3361 45.8461 30.1593 45.607 30.9999 45.607C31.8413 45.607 32.6666 45.8474 33.3768 46.2987Z" fill="#2774AC"/>
</svg>
