<svg width="58" height="59" viewBox="0 0 58 59" fill="none" xmlns="http://www.w3.org/2000/svg">
<path fill-rule="evenodd" clip-rule="evenodd" d="M48.6875 0.46875C49.8956 0.46875 50.875 1.44813 50.875 2.65625V4.12342C51.6427 4.39477 52.3449 4.80491 52.9513 5.3237L54.2036 4.59419C55.2475 3.98609 56.5868 4.33938 57.1949 5.3833C57.803 6.42722 57.4497 7.76645 56.4058 8.37456L55.1404 9.11167C55.2124 9.50098 55.25 9.90235 55.25 10.3125C55.25 10.7227 55.2124 11.124 55.1404 11.5133L56.4058 12.2504C57.4497 12.8586 57.803 14.1978 57.1949 15.2417C56.5868 16.2856 55.2475 16.6389 54.2036 16.0308L52.9513 15.3013C52.3449 15.8201 51.6427 16.2302 50.875 16.5016V17.9688C50.875 19.1769 49.8956 20.1562 48.6875 20.1562C47.4794 20.1562 46.5 19.1769 46.5 17.9688V16.5016C45.7323 16.2302 45.0302 15.8201 44.4237 15.3013L43.1714 16.0308C42.1275 16.6389 40.7883 16.2856 40.1801 15.2417C39.572 14.1978 39.9253 12.8586 40.9692 12.2504L42.2346 11.5133C42.1626 11.124 42.125 10.7227 42.125 10.3125C42.125 9.90235 42.1626 9.50098 42.2346 9.11167L40.9692 8.37456C39.9253 7.76645 39.572 6.42722 40.1801 5.3833C40.7883 4.33938 42.1275 3.98609 43.1714 4.59419L44.4237 5.3237C45.0302 4.80491 45.7323 4.39477 46.5 4.12342V2.65625C46.5 1.44813 47.4794 0.46875 48.6875 0.46875ZM31.2236 6.03677C30.4892 5.96595 29.7516 5.9328 29.0138 5.93746L29 5.93754C24.2409 5.93754 19.5887 7.34874 15.6316 9.99276C11.6745 12.6368 8.5904 16.3948 6.76916 20.7917C4.94793 25.1885 4.47141 30.0267 5.39987 34.6944C6.23607 38.8982 8.17809 42.7938 11.0142 45.9848C12.7357 43.4981 14.9608 41.3861 17.5568 39.7926C18.6193 39.1405 19.7312 38.5832 20.8793 38.1244C17.8315 35.7209 15.875 31.9952 15.875 27.8125C15.875 20.5638 21.7513 14.6875 29 14.6875C36.2488 14.6875 42.125 20.5638 42.125 27.8125C42.125 31.9952 40.1685 35.7209 37.1207 38.1244C38.2689 38.5832 39.3807 39.1405 40.4432 39.7926C43.0392 41.3861 45.2643 43.4981 46.9858 45.9848C47.716 45.1633 48.3918 44.2895 49.0072 43.3684C51.6513 39.4114 53.0625 34.7591 53.0625 30L53.0625 29.9892C53.0673 29.0339 53.0091 28.0792 52.8886 27.1315C52.7361 25.933 53.5841 24.8379 54.7826 24.6855C55.981 24.533 57.0762 25.381 57.2286 26.5794C57.3732 27.7157 57.4429 28.8603 57.4375 30.0057C57.4364 35.6282 55.7686 41.1241 52.6449 45.799C51.3536 47.7317 49.8373 49.4882 48.1359 51.0359C48.0613 51.1139 47.9804 51.1868 47.8934 51.254C45.5343 53.351 42.8299 55.052 39.8826 56.2728C34.6863 58.4252 28.9685 58.9884 23.4521 57.8911C18.4829 56.9026 13.8782 54.6068 10.1065 51.2539C10.0196 51.1868 9.93871 51.1139 9.86422 51.036C9.53331 50.735 9.20902 50.4257 8.89166 50.1084C4.91461 46.1313 2.2062 41.0642 1.10893 35.5479C0.0116641 30.0315 0.574822 24.3137 2.72719 19.1174C4.87956 13.9212 8.52446 9.47984 13.201 6.35508C17.8756 3.23161 23.3711 1.56386 28.9931 1.5625C29.8781 1.55715 30.7627 1.59703 31.6436 1.68198C32.8461 1.79794 33.727 2.86681 33.611 4.06935C33.495 5.2719 32.4262 6.15274 31.2236 6.03677ZM14.2529 49.0139C17.1918 51.2933 20.6309 52.8692 24.3057 53.6001C28.9733 54.5286 33.8115 54.0521 38.2083 52.2309C40.2005 51.4057 42.0615 50.3213 43.7471 49.0139C42.3263 46.79 40.4164 44.9096 38.1546 43.5213C35.4009 41.8311 32.2324 40.9375 29 40.9375C25.7676 40.9375 22.5991 41.8311 19.8454 43.5213C17.5836 44.9096 15.6737 46.79 14.2529 49.0139ZM48.6875 8.125C47.4794 8.125 46.5 9.10438 46.5 10.3125C46.5 11.5206 47.4794 12.5 48.6875 12.5C49.8956 12.5 50.875 11.5206 50.875 10.3125C50.875 9.10438 49.8956 8.125 48.6875 8.125ZM29 19.0625C24.1675 19.0625 20.25 22.98 20.25 27.8125C20.25 32.645 24.1675 36.5625 29 36.5625C33.8325 36.5625 37.75 32.645 37.75 27.8125C37.75 22.98 33.8325 19.0625 29 19.0625Z" fill="#2774AC"/>
</svg>
