<svg width="24" height="21" viewBox="0 0 24 21" fill="none" xmlns="http://www.w3.org/2000/svg">
<path fill-rule="evenodd" clip-rule="evenodd" d="M3.79354 4.5H20.206V5.3125L20.2099 4.50001C20.6072 4.50188 20.9903 4.64839 21.2876 4.91217C21.5848 5.17595 21.7758 5.53894 21.8248 5.93329L21.8262 5.944L23.2681 18.9422C23.2936 19.1685 23.2714 19.3983 23.2026 19.6155C23.1338 19.8328 23.02 20.0333 22.8687 20.2038C22.7173 20.3743 22.5318 20.511 22.3241 20.6051C22.1165 20.6992 21.8914 20.7486 21.6634 20.75L21.6584 20.75H2.3362C2.10822 20.7486 1.88308 20.6992 1.67543 20.6051C1.46777 20.511 1.28224 20.3743 1.1309 20.2038C0.979555 20.0333 0.865779 19.8328 0.79697 19.6155C0.728278 19.3985 0.705935 19.1695 0.73138 18.9433L0.731511 18.9422L2.17468 5.93328C2.22374 5.53893 2.4148 5.17595 2.71201 4.91217C3.00923 4.64839 3.39234 4.50188 3.78972 4.50001L3.79354 4.5ZM20.2026 6.125H3.79697C3.79464 6.1251 3.79241 6.126 3.79066 6.12755C3.78909 6.12895 3.78799 6.1308 3.78751 6.13283L2.3462 19.125H21.6534L20.2121 6.13283C20.2116 6.1308 20.2105 6.12895 20.2089 6.12755C20.2072 6.126 20.2049 6.1251 20.2026 6.125Z" fill="#2E2F31"/>
<path fill-rule="evenodd" clip-rule="evenodd" d="M11.9998 2.0625C11.1378 2.0625 10.3112 2.40491 9.70169 3.0144C9.0922 3.6239 8.74979 4.45055 8.74979 5.3125V8.5625C8.74979 9.01123 8.38602 9.375 7.93729 9.375C7.48855 9.375 7.12479 9.01123 7.12479 8.5625V5.3125C7.12479 4.01957 7.6384 2.77959 8.55264 1.86535C9.46688 0.951115 10.7069 0.4375 11.9998 0.4375C13.2927 0.4375 14.5327 0.951115 15.4469 1.86535C16.3612 2.77959 16.8748 4.01957 16.8748 5.3125V8.5625C16.8748 9.01123 16.511 9.375 16.0623 9.375C15.6136 9.375 15.2498 9.01123 15.2498 8.5625V5.3125C15.2498 4.45055 14.9074 3.6239 14.2979 3.0144C13.6884 2.40491 12.8617 2.0625 11.9998 2.0625Z" fill="#2E2F31"/>
</svg>
