<svg width="22" height="22" viewBox="0 0 22 22" fill="none" xmlns="http://www.w3.org/2000/svg">
<path fill-rule="evenodd" clip-rule="evenodd" d="M11.5483 2.1005C9.37786 1.96448 7.23246 2.62535 5.5148 3.95905C3.79714 5.29274 2.62536 7.20753 2.21943 9.34396C1.81351 11.4804 2.20135 13.6915 3.31016 15.5622C3.42371 15.7538 3.45365 15.9836 3.39298 16.1979L2.44138 19.5589L5.80237 18.6073L6.02371 19.389L6.43799 18.6901C8.30872 19.7989 10.5198 20.1867 12.6563 19.7808C14.7927 19.3749 16.7075 18.2031 18.0412 16.4854C19.3749 14.7678 20.0358 12.6224 19.8997 10.452C19.7637 8.28159 18.8402 6.23549 17.3025 4.69778C15.7647 3.16007 13.7186 2.23652 11.5483 2.1005ZM5.91737 20.2636C8.06116 21.4388 10.5506 21.835 12.9596 21.3772C15.4849 20.8974 17.7482 19.5123 19.3247 17.482C20.9012 15.4517 21.6823 12.9158 21.5216 10.3503C21.3608 7.78489 20.2691 5.36634 18.4515 3.54873C16.6339 1.73112 14.2153 0.639459 11.6499 0.478682C9.08444 0.317905 6.54851 1.09907 4.5182 2.67553C2.48789 4.25199 1.10281 6.51532 0.622993 9.04063C0.165269 11.4497 0.561399 13.9391 1.73667 16.0829L0.875545 19.1243C0.795329 19.4012 0.790687 19.6945 0.862139 19.9738C0.93393 20.2545 1.0799 20.5106 1.28474 20.7155C1.48959 20.9203 1.74577 21.0663 2.02642 21.1381C2.30575 21.2095 2.5991 21.2049 2.876 21.1247L5.91737 20.2636Z" fill="#2E2F31"/>
</svg>
