<svg width="28" height="28" viewBox="0 0 28 28" fill="none" xmlns="http://www.w3.org/2000/svg">
<path fill-rule="evenodd" clip-rule="evenodd" d="M11.4764 3.90231C11.1107 4.21898 10.6725 4.55243 10.1715 4.76082C9.66676 4.97077 9.12152 5.04228 8.64156 5.07382C8.32731 5.09448 7.97668 5.10007 7.65709 5.10517C7.50544 5.10759 7.36078 5.1099 7.23032 5.11365C6.26905 5.1413 5.77973 5.25949 5.51961 5.51961C5.26095 5.77827 5.14752 6.25302 5.12311 7.20836C5.11998 7.33071 5.11812 7.46493 5.11617 7.60565C5.11163 7.9321 5.10661 8.2935 5.08422 8.62274C5.0511 9.10968 4.97546 9.65902 4.75988 10.1738C4.54654 10.6832 4.21293 11.1255 3.8927 11.4964C3.67424 11.7495 3.42223 12.0126 3.19353 12.2513C3.0962 12.3529 3.0031 12.4501 2.9186 12.5402C2.60965 12.8697 2.37092 13.1495 2.20848 13.413C2.05009 13.67 2 13.8551 2 14C2 14.1436 2.05064 14.3317 2.21248 14.5948C2.37753 14.8631 2.61952 15.1481 2.92944 15.4801C3.01803 15.575 3.11631 15.6779 3.21898 15.7854C3.44426 16.0212 3.69069 16.2791 3.90231 16.5236C4.21898 16.8893 4.55243 17.3275 4.76082 17.8285C4.97077 18.3332 5.04228 18.8785 5.07382 19.3584C5.09448 19.6727 5.10007 20.0233 5.10517 20.3429C5.10759 20.4946 5.1099 20.6392 5.11365 20.7697C5.1413 21.7309 5.25949 22.2203 5.51961 22.4804C5.77827 22.7391 6.25302 22.8525 7.20836 22.8769C7.33073 22.88 7.46496 22.8819 7.60569 22.8838C7.93213 22.8884 8.29351 22.8934 8.62274 22.9158C9.10968 22.9489 9.65902 23.0245 10.1738 23.2401C10.6832 23.4535 11.1255 23.7871 11.4964 24.1073C11.7495 24.3258 12.0125 24.5778 12.2513 24.8065C12.3529 24.9038 12.4501 24.9969 12.5402 25.0814C12.8697 25.3903 13.1495 25.6291 13.413 25.7915C13.67 25.9499 13.8551 26 14 26C14.1436 26 14.3317 25.9494 14.5948 25.7875C14.8631 25.6225 15.1481 25.3805 15.4801 25.0706C15.575 24.982 15.6779 24.8837 15.7854 24.781C16.0212 24.5557 16.2791 24.3093 16.5236 24.0977C16.8893 23.781 17.3275 23.4476 17.8285 23.2392C18.3332 23.0292 18.8785 22.9577 19.3584 22.9262C19.6727 22.9055 20.0233 22.8999 20.3429 22.8948C20.4945 22.8924 20.6392 22.8901 20.7697 22.8864C21.7309 22.8587 22.2203 22.7405 22.4804 22.4804C22.7391 22.2217 22.8525 21.747 22.8769 20.7916C22.88 20.6693 22.8819 20.535 22.8838 20.3943C22.8884 20.0679 22.8934 19.7065 22.9158 19.3773C22.9489 18.8903 23.0245 18.341 23.2401 17.8262C23.4535 17.3168 23.7871 16.8745 24.1073 16.5036C24.3258 16.2505 24.5778 15.9875 24.8065 15.7487C24.9038 15.6471 24.9969 15.5499 25.0814 15.4598C25.3903 15.1303 25.6291 14.8505 25.7915 14.587C25.9499 14.33 26 14.1449 26 14C26 13.8564 25.9494 13.6683 25.7875 13.4052C25.6225 13.1369 25.3805 12.8519 25.0706 12.5199C24.982 12.425 24.8837 12.3221 24.781 12.2146C24.5557 11.9788 24.3093 11.7209 24.0977 11.4764C23.781 11.1107 23.4476 10.6725 23.2392 10.1715C23.0292 9.66676 22.9577 9.12152 22.9262 8.64156C22.9055 8.32732 22.8999 7.9767 22.8948 7.65712C22.8924 7.50546 22.8901 7.36079 22.8864 7.23032C22.8587 6.26905 22.7405 5.77973 22.4804 5.51961C22.2217 5.26095 21.747 5.14752 20.7916 5.12311C20.6693 5.11998 20.5351 5.11812 20.3944 5.11617C20.0679 5.11163 19.7065 5.10661 19.3773 5.08422C18.8903 5.0511 18.341 4.97546 17.8262 4.75988C17.3168 4.54654 16.8745 4.21293 16.5036 3.8927C16.2505 3.67424 15.9874 3.42223 15.7487 3.19353C15.6471 3.0962 15.5499 3.0031 15.4598 2.9186C15.1303 2.60965 14.8505 2.37092 14.587 2.20848C14.33 2.05009 14.1449 2 14 2C13.8564 2 13.6683 2.05064 13.4052 2.21248C13.1369 2.37753 12.8519 2.61952 12.5199 2.92944C12.425 3.01803 12.3221 3.11631 12.2146 3.21898C11.9788 3.44426 11.7209 3.69069 11.4764 3.90231ZM12.3573 0.509004C12.8098 0.230613 13.3623 0 14 0C14.6363 0 15.1856 0.228033 15.6365 0.505972C16.0808 0.779863 16.4822 1.13566 16.8277 1.45953C16.9535 1.57743 17.0695 1.68871 17.1805 1.79508C17.3986 2.00427 17.597 2.19448 17.8105 2.37878C18.1224 2.64801 18.3769 2.82221 18.5988 2.91512C18.8153 3.00579 19.1097 3.0614 19.513 3.08883C19.7883 3.10756 20.0554 3.11112 20.3511 3.11506C20.5054 3.11712 20.6675 3.11929 20.8427 3.12376C21.7218 3.14623 23.0033 3.21405 23.8946 4.10539C24.7845 4.99527 24.8601 6.2872 24.8855 7.17281C24.891 7.36206 24.8936 7.5352 24.8961 7.69933C24.9004 7.98449 24.9043 8.24244 24.9219 8.51039C24.9485 8.91598 25.002 9.20199 25.0858 9.40347C25.1712 9.6087 25.3393 9.85496 25.6097 10.1673C25.7903 10.3759 25.9758 10.5698 26.1798 10.7831C26.2912 10.8995 26.408 11.0217 26.5326 11.1551C26.8586 11.5044 27.2158 11.91 27.491 12.3573C27.7694 12.8098 28 13.3623 28 14C28 14.6363 27.772 15.1856 27.494 15.6365C27.2201 16.0808 26.8643 16.4822 26.5405 16.8277C26.4226 16.9534 26.3113 17.0695 26.2049 17.1804C25.9957 17.3986 25.8055 17.597 25.6212 17.8105C25.352 18.1224 25.1778 18.3769 25.0849 18.5988C24.9942 18.8153 24.9386 19.1097 24.9112 19.513C24.8924 19.7883 24.8889 20.0553 24.8849 20.3511C24.8829 20.5054 24.8807 20.6675 24.8762 20.8427C24.8538 21.7218 24.7859 23.0033 23.8946 23.8946C23.0047 24.7845 21.7128 24.8601 20.8272 24.8855C20.6379 24.891 20.4648 24.8936 20.3007 24.8961C20.0155 24.9004 19.7576 24.9043 19.4896 24.9219C19.084 24.9485 18.798 25.002 18.5965 25.0858C18.3913 25.1712 18.145 25.3393 17.8327 25.6097C17.6241 25.7903 17.4302 25.9758 17.2169 26.1798C17.1005 26.2912 16.9783 26.408 16.8449 26.5326C16.4956 26.8586 16.09 27.2158 15.6427 27.491C15.1902 27.7694 14.6377 28 14 28C13.3637 28 12.8144 27.772 12.3635 27.494C11.9192 27.2201 11.5178 26.8643 11.1723 26.5405C11.0465 26.4226 10.9305 26.3113 10.8196 26.2049C10.6014 25.9957 10.403 25.8055 10.1895 25.6212C9.87764 25.352 9.62306 25.1778 9.40121 25.0849C9.18473 24.9942 8.89032 24.9386 8.48703 24.9112C8.21166 24.8924 7.94465 24.8889 7.64895 24.8849C7.49462 24.8829 7.33249 24.8807 7.15727 24.8762C6.27823 24.8538 4.99673 24.7859 4.10539 23.8946C3.21552 23.0047 3.13995 21.7128 3.11448 20.8272C3.10903 20.6379 3.10642 20.4648 3.10394 20.3007C3.09964 20.0155 3.09574 19.7576 3.07813 19.4896C3.05147 19.084 2.99798 18.798 2.91418 18.5965C2.82882 18.3913 2.66071 18.145 2.39027 17.8327C2.20972 17.6241 2.02422 17.4302 1.82016 17.2169C1.70885 17.1005 1.59201 16.9783 1.46744 16.8449C1.14142 16.4956 0.784185 16.09 0.509004 15.6427C0.230613 15.1902 0 14.6377 0 14C0 13.3637 0.228033 12.8144 0.505972 12.3635C0.779863 11.9192 1.13566 11.5178 1.45953 11.1723C1.57743 11.0465 1.68871 10.9305 1.79508 10.8195C2.00427 10.6014 2.19448 10.403 2.37878 10.1895C2.64801 9.87764 2.82221 9.62306 2.91512 9.40121C3.00579 9.18473 3.0614 8.89032 3.08883 8.48703C3.10756 8.21166 3.11112 7.94465 3.11506 7.64894C3.11712 7.49462 3.11929 7.33249 3.12376 7.15727C3.14623 6.27823 3.21405 4.99673 4.10539 4.10539C4.99527 3.21552 6.2872 3.13995 7.17281 3.11448C7.36206 3.10903 7.5352 3.10642 7.69932 3.10394C7.98449 3.09964 8.24244 3.09574 8.51039 3.07813C8.91598 3.05147 9.20199 2.99798 9.40347 2.91418C9.6087 2.82882 9.85496 2.66071 10.1673 2.39027C10.3759 2.20972 10.5698 2.02422 10.7832 1.82016C10.8995 1.70885 11.0217 1.59201 11.1551 1.46744C11.5044 1.14142 11.91 0.784185 12.3573 0.509004Z" fill="#2774AC"/>
<path fill-rule="evenodd" clip-rule="evenodd" d="M20.2236 10.3097C20.6048 10.7093 20.5899 11.3423 20.1903 11.7236L12.8528 18.7236C12.4662 19.0924 11.8579 19.0921 11.4716 18.723L7.80912 15.223C7.40983 14.8414 7.39547 14.2084 7.77704 13.8091C8.1586 13.4098 8.79161 13.3955 9.19089 13.777L12.1631 16.6174L18.8097 10.2765C19.2093 9.89522 19.8423 9.91012 20.2236 10.3097Z" fill="#2774AC"/>
</svg>
