<svg width="15" height="15" viewBox="0 0 15 15" fill="none" xmlns="http://www.w3.org/2000/svg">
<path d="M14.5254 0.0142969C14.2376 -0.0500721 13.9498 0.109318 13.8242 0.366793L10.9706 3.56154L8.07714 0.363728C7.98222 0.13997 7.75871 0.0112317 7.50151 0.0112317C7.24432 0.0112317 7.02387 0.13997 6.92589 0.363728L4.06 3.53089L1.18187 0.363728C1.05327 0.109318 0.765461 -0.0500721 0.477647 0.0142969C0.192896 0.0756006 0 0.333076 0 0.621204V12.2199C0 12.413 0.0949171 12.603 0.254133 12.7318C0.318432 12.7624 3.54255 15 7.78626 15C9.92649 15 12.3515 14.4237 14.7458 12.7318C14.905 12.603 15 12.413 15 12.2199V0.621204C15.003 0.333076 14.8101 0.0756006 14.5254 0.0142969ZM13.7905 11.9011C8.10776 15.705 2.55358 12.7011 1.27679 11.9011V2.46263L3.51193 5.28724C3.89466 5.91867 4.50397 5.57537 4.66931 5.1677L7.50151 2.08943L10.3735 5.2903C10.7501 5.94319 11.488 5.511 11.5554 5.25965L13.7905 2.43505V11.9011Z" fill="#2774AC"/>
</svg>
