<svg width="22" height="14" viewBox="0 0 22 14" fill="none" xmlns="http://www.w3.org/2000/svg">
<path fill-rule="evenodd" clip-rule="evenodd" d="M3.12324 3.42011C4.76212 1.78123 7.33385 0.125 11 0.125C14.6661 0.125 17.2379 1.78123 18.8768 3.42011C19.6942 4.23757 20.2837 5.05383 20.6697 5.66689C20.863 5.97396 21.0063 6.23161 21.1024 6.41513C21.1505 6.50693 21.1869 6.58034 21.2119 6.63226C21.2244 6.65823 21.234 6.67885 21.2409 6.69372L21.2492 6.71169L21.2517 6.71736L21.2526 6.71936L21.253 6.72014C21.253 6.72014 21.2532 6.72078 20.625 7C21.2532 7.27922 21.253 7.27986 21.253 7.27986L21.2526 7.28064L21.2517 7.28264L21.2492 7.28831L21.2409 7.30628C21.234 7.32115 21.2244 7.34177 21.2119 7.36774C21.1869 7.41966 21.1505 7.49307 21.1024 7.58487C21.0063 7.76839 20.863 8.02604 20.6697 8.33311C20.2837 8.94617 19.6942 9.76243 18.8768 10.5799C17.2379 12.2188 14.6661 13.875 11 13.875C7.33385 13.875 4.76212 12.2188 3.12324 10.5799C2.30578 9.76243 1.71632 8.94617 1.33032 8.33311C1.13699 8.02604 0.99371 7.76839 0.897583 7.58487C0.849493 7.49307 0.813126 7.41966 0.788124 7.36774C0.77562 7.34177 0.765951 7.32115 0.759073 7.30628L0.75084 7.28831L0.748281 7.28264L0.747389 7.28064L0.74704 7.27986C0.74704 7.27986 0.746755 7.27922 1.375 7C0.746755 6.72078 0.74704 6.72014 0.74704 6.72014L0.747389 6.71936L0.748281 6.71736L0.75084 6.71169L0.759073 6.69372C0.765951 6.67885 0.77562 6.65823 0.788124 6.63226C0.813126 6.58034 0.849493 6.50693 0.897583 6.41513C0.99371 6.23161 1.13699 5.97396 1.33032 5.66689C1.71632 5.05383 2.30578 4.23757 3.12324 3.42011ZM1.375 7L0.746755 6.72078C0.667748 6.89854 0.667748 7.10146 0.746755 7.27922L1.375 7ZM2.1437 7C2.22458 7.1515 2.34073 7.35723 2.49389 7.60049C2.83836 8.14758 3.36609 8.87819 4.09551 9.60761C5.55038 11.0625 7.79115 12.5 11 12.5C14.2089 12.5 16.4496 11.0625 17.9045 9.60761C18.6339 8.87819 19.1616 8.14758 19.5061 7.60049C19.6593 7.35723 19.7754 7.1515 19.8563 7C19.7754 6.8485 19.6593 6.64277 19.5061 6.39951C19.1616 5.85242 18.6339 5.12181 17.9045 4.39239C16.4496 2.93752 14.2089 1.5 11 1.5C7.79115 1.5 5.55038 2.93752 4.09551 4.39239C3.36609 5.12181 2.83836 5.85242 2.49389 6.39951C2.34073 6.64277 2.22458 6.8485 2.1437 7ZM20.625 7L21.2532 7.27922C21.3323 7.10146 21.3323 6.89854 21.2532 6.72078L20.625 7Z" fill="#ACACAC"/>
<path fill-rule="evenodd" clip-rule="evenodd" d="M11 4.25C9.48122 4.25 8.25 5.48122 8.25 7C8.25 8.51878 9.48122 9.75 11 9.75C12.5188 9.75 13.75 8.51878 13.75 7C13.75 5.48122 12.5188 4.25 11 4.25ZM6.875 7C6.875 4.72183 8.72183 2.875 11 2.875C13.2782 2.875 15.125 4.72183 15.125 7C15.125 9.27817 13.2782 11.125 11 11.125C8.72183 11.125 6.875 9.27817 6.875 7Z" fill="#ACACAC"/>
</svg>
