<svg width="22" height="20" viewBox="0 0 22 20" fill="none" xmlns="http://www.w3.org/2000/svg">
<path d="M11 19.75C10.8629 19.75 10.7268 19.7155 10.6029 19.6464C10.1712 19.4047 0.03125 13.6421 0.03125 6.34378C0.03125 2.98409 2.76531 0.250029 6.125 0.250029C8.07805 0.250029 9.86859 1.17222 11.001 2.6855C12.6331 0.510029 15.5957 -0.374581 18.2191 0.719247C20.4971 1.66886 21.9688 3.87683 21.9688 6.34378C21.9688 13.6421 11.8288 19.4047 11.3971 19.6464C11.2742 19.7155 11.1371 19.75 11 19.75ZM6.125 1.87503C3.66109 1.87503 1.65625 3.87987 1.65625 6.34378C1.65625 11.946 9.16984 16.8758 11 17.993C12.8302 16.8758 20.3438 11.946 20.3438 6.34378C20.3438 4.53393 19.2641 2.91503 17.5934 2.21831C16.4915 1.75925 15.2768 1.7562 14.1728 2.2112C13.0688 2.6662 12.2086 3.52237 11.7495 4.62433C11.6236 4.92698 11.327 5.12401 11 5.12401C10.673 5.12401 10.3764 4.92698 10.2505 4.62433C9.55477 2.95362 7.93484 1.87401 6.125 1.87401V1.87503Z" fill="#2E2F31"/>
</svg>
