<svg width="17" height="19" viewBox="0 0 17 19" fill="none" xmlns="http://www.w3.org/2000/svg">
<path d="M13.543 5.57517C13.52 7.13063 13.02 9.23667 10.676 10.0532C11.41 8.24626 11.522 6.51693 11.002 4.9004C10.307 2.7302 7.988 1.03502 6.445 0.111883C5.918 -0.204799 5.242 0.188466 5.252 0.818725C5.272 1.96954 4.934 3.65127 3.293 5.34956C1.107 7.6098 0 9.94559 0 12.2907C0 15.235 2 19 6 19C1.959 14.8179 5 11.2558 5 11.2558C5.846 17.3762 9.988 19 12 19C13.711 19 17 17.7064 17 12.3269C17 9.08454 15.668 6.62353 14.615 5.18707C14.268 4.71309 13.551 4.98216 13.543 5.57517Z" fill="#FC0321"/>
</svg>
