<svg width="19" height="22" viewBox="0 0 19 22" fill="none" xmlns="http://www.w3.org/2000/svg">
<path d="M18.4649 15.1865C17.8848 14.1846 17.1934 12.2871 17.1934 8.9375V8.24414C17.1924 3.91992 13.7207 0.375977 9.45314 0.34375H9.39846C7.31447 0.34668 5.35549 1.16113 3.88478 2.63672C2.4131 4.1123 1.60451 6.07227 1.60744 8.15625V8.9375C1.60744 12.2871 0.916033 14.1846 0.334979 15.1875C0.19826 15.4229 0.125018 15.6914 0.125018 15.9629C0.123064 16.3799 0.284197 16.7734 0.579119 17.0693C0.874041 17.3652 1.26467 17.5293 1.68556 17.5313H5.49318C5.49318 19.6855 7.24514 21.4375 9.39943 21.4375C11.5537 21.4375 13.3057 19.6855 13.3057 17.5313H17.1172C17.3897 17.5313 17.6582 17.458 17.8926 17.3223C18.2539 17.1133 18.5127 16.7764 18.6211 16.374C18.7295 15.9707 18.6738 15.5498 18.4649 15.1875V15.1865ZM9.40041 19.875C8.10842 19.875 7.05666 18.8232 7.05666 17.5313H11.7442C11.7442 18.8232 10.6924 19.875 9.40041 19.875ZM12.5303 15.9688C12.5303 15.9688 12.5274 15.9688 12.5254 15.9688C12.5235 15.9688 12.5225 15.9688 12.5205 15.9688H6.28517C6.28517 15.9688 6.27834 15.9688 6.27443 15.9688C6.27053 15.9688 6.2676 15.9688 6.26369 15.9688H1.68752C2.3633 14.8008 3.16994 12.6328 3.16994 8.93652V8.15527C3.16799 6.4873 3.81447 4.91895 4.99123 3.73926C6.16799 2.55859 7.73439 1.90723 9.40236 1.90527H9.44338C12.8555 1.93164 15.6309 4.77441 15.6309 8.24316V8.93652C15.6309 12.6328 16.4365 14.8008 17.1153 15.9678H12.5303V15.9688Z" fill="#2E2F31"/>
</svg>
