<svg width="22" height="24" viewBox="0 0 22 24" fill="none" xmlns="http://www.w3.org/2000/svg">
<path fill-rule="evenodd" clip-rule="evenodd" d="M10.2023 0.548264C10.4451 0.40915 10.7201 0.335938 11 0.335938C11.2799 0.335938 11.5549 0.409151 11.7977 0.548264L20.7348 5.57538C20.9848 5.71737 21.193 5.92276 21.3383 6.17086C21.4836 6.41895 21.5609 6.70097 21.5625 6.98849L21.5625 6.99285L21.5625 17.0069H20.75L21.5625 17.0113C21.5609 17.2988 21.4836 17.5808 21.3383 17.8289C21.193 18.077 20.9848 18.2824 20.7348 18.4244L20.7319 18.426L11.7977 23.4515C11.5549 23.5906 11.2799 23.6638 11 23.6638C10.7201 23.6638 10.4451 23.5906 10.2023 23.4515L1.26807 18.426L1.26518 18.4244C1.01517 18.2824 0.807007 18.077 0.661695 17.8289C0.516383 17.5808 0.439056 17.2988 0.437512 17.0113L0.4375 17.0069V6.98849C0.439044 6.70097 0.516383 6.41895 0.661695 6.17086C0.807007 5.92276 1.01517 5.71737 1.26518 5.57539L1.26807 5.57375L10.2023 0.548264ZM19.9375 17.003V6.99677C19.9374 6.99514 19.9369 6.99355 19.9361 6.99214C19.9353 6.99069 19.9341 6.98948 19.9327 6.9886L11 1.96399L2.06763 6.98844C2.0662 6.98931 2.06473 6.99069 2.06388 6.99214C2.06305 6.99355 2.06258 6.99514 2.0625 6.99678V17.003C2.06258 17.0046 2.06305 17.0062 2.06388 17.0076C2.06472 17.0091 2.06591 17.0103 2.06733 17.0111L11 22.0358L19.9324 17.0113C19.9338 17.0105 19.9353 17.0091 19.9361 17.0076C19.9369 17.0062 19.9374 17.0046 19.9375 17.003Z" fill="#2E2F31"/>
<path fill-rule="evenodd" clip-rule="evenodd" d="M5.41349 3.38094C5.63021 2.98801 6.12443 2.84516 6.51735 3.06188L16.3689 8.49548C16.6281 8.63842 16.789 8.91097 16.789 9.20694V14.4882C16.789 14.9369 16.4252 15.3007 15.9765 15.3007C15.5278 15.3007 15.164 14.9369 15.164 14.4882V9.68669L5.73255 4.4848C5.33962 4.26809 5.19677 3.77387 5.41349 3.38094Z" fill="#2E2F31"/>
<path fill-rule="evenodd" clip-rule="evenodd" d="M0.651935 6.18083C0.870413 5.78888 1.36527 5.64825 1.75722 5.86673L11.0875 11.0676L20.2369 5.86996C20.627 5.64831 21.123 5.78493 21.3447 6.17509C21.5663 6.56526 21.4297 7.06124 21.0395 7.28289L11.4926 12.7063C11.2458 12.8465 10.9437 12.8478 10.6957 12.7096L0.966037 7.28612C0.574084 7.06764 0.433456 6.57279 0.651935 6.18083Z" fill="#2E2F31"/>
<path fill-rule="evenodd" clip-rule="evenodd" d="M11.0983 11.1875C11.547 11.1913 11.9077 11.5581 11.9039 12.0068L11.8125 22.8537C11.8087 23.3024 11.4419 23.6631 10.9932 23.6593C10.5444 23.6555 10.1837 23.2887 10.1875 22.84L10.2789 11.9931C10.2827 11.5444 10.6495 11.1837 11.0983 11.1875Z" fill="#2E2F31"/>
</svg>
