<svg width="22" height="22" viewBox="0 0 22 22" fill="none" xmlns="http://www.w3.org/2000/svg">
<path fill-rule="evenodd" clip-rule="evenodd" d="M11 2.0625C6.06395 2.0625 2.0625 6.06395 2.0625 11C2.0625 15.936 6.06395 19.9375 11 19.9375C15.936 19.9375 19.9375 15.936 19.9375 11C19.9375 6.06395 15.936 2.0625 11 2.0625ZM0.4375 11C0.4375 5.16649 5.16649 0.4375 11 0.4375C16.8335 0.4375 21.5625 5.16649 21.5625 11C21.5625 16.8335 16.8335 21.5625 11 21.5625C5.16649 21.5625 0.4375 16.8335 0.4375 11Z" fill="#2E2F31"/>
<path fill-rule="evenodd" clip-rule="evenodd" d="M3.52954 3.52939C3.84684 3.21209 4.36129 3.21209 4.67859 3.52939L18.4708 17.3216C18.7881 17.6389 18.7881 18.1533 18.4708 18.4706C18.1535 18.7879 17.639 18.7879 17.3217 18.4706L3.52954 4.67844C3.21224 4.36114 3.21224 3.84669 3.52954 3.52939Z" fill="#2E2F31"/>
</svg>
