<svg width="24" height="22" viewBox="0 0 24 22" fill="none" xmlns="http://www.w3.org/2000/svg">
<path fill-rule="evenodd" clip-rule="evenodd" d="M21.516 0.165201C21.8115 0.050642 22.1326 0.0184809 22.4449 0.0721503C22.7573 0.125819 23.0492 0.263303 23.2895 0.469928C23.5298 0.676552 23.7095 0.944558 23.8094 1.24533C23.9093 1.54611 23.9256 1.86837 23.8567 2.1777L23.8556 2.1826L19.7431 20.142C19.6751 20.4378 19.5313 20.7114 19.326 20.9349C19.1206 21.1584 18.8606 21.3247 18.5716 21.4173C18.2825 21.51 17.9744 21.5259 17.6773 21.4635C17.3809 21.4011 17.1057 21.2629 16.8787 21.0624L16.8773 21.0612L7.22248 12.5662L1.6226 11.442L1.61899 11.4413C-0.0630093 11.0963 -0.321482 8.74028 1.32243 8.09605L21.5125 0.166598L21.516 0.165201ZM1.96645 9.72324L1.96698 9.7262L1.96969 9.72681L1.97064 9.72701L7.79673 10.8966C7.94728 10.9268 8.08722 10.9961 8.2025 11.0976L18.0353 19.7491L18.0373 19.7509L22.1486 1.79688L1.96645 9.72324Z" fill="#2774AC"/>
<path fill-rule="evenodd" clip-rule="evenodd" d="M23.2199 0.490579C23.5029 0.882331 23.4147 1.42928 23.0229 1.71223L8.13696 12.4638C7.74521 12.7467 7.19825 12.6585 6.91531 12.2668C6.63236 11.875 6.72056 11.3281 7.11231 11.0451L21.9983 0.293572C22.39 0.0106233 22.937 0.0988265 23.2199 0.490579Z" fill="#2774AC"/>
<path fill-rule="evenodd" clip-rule="evenodd" d="M7.62457 10.8795C8.10782 10.8795 8.49957 11.2712 8.49957 11.7545L8.49957 18.8733L8.50427 18.8686L11.9168 15.4561C12.2585 15.1144 12.8125 15.1144 13.1542 15.4561C13.4959 15.7978 13.4959 16.3518 13.1542 16.6935L9.74369 20.1041C9.50061 20.3498 9.19018 20.518 8.85155 20.5876C8.51163 20.6574 8.15864 20.6245 7.83742 20.4932C7.51621 20.3619 7.24129 20.1381 7.04759 19.8502C6.85389 19.5623 6.75015 19.2233 6.74957 18.8763L6.74957 11.7545C6.74957 11.2712 7.14132 10.8795 7.62457 10.8795Z" fill="#2774AC"/>
</svg>
