<?xml version="1.0" encoding="utf-8"?>
<!-- Generator: Adobe Illustrator 25.4.1, SVG Export Plug-In . SVG Version: 6.00 Build 0)  -->
<svg version="1.1" id="Слой_1" xmlns="http://www.w3.org/2000/svg" xmlns:xlink="http://www.w3.org/1999/xlink" x="0px" y="0px"
	 viewBox="0 0 24 24" style="enable-background:new 0 0 24 24;" xml:space="preserve">
<path d="M12,3c5.5,0,10,3.6,10,8c0,4.9-5.1,8-9.9,8c-1.9,0-3.4-0.4-4.4-0.6c-1,0.6-1.6,1-4.3,1.8C4,18.8,4.1,17.4,4,15.9
	c-0.8-1-2-2.4-2-4.9C2,6.6,6.5,3,12,3z M12,1C5.7,1,0,5.2,0,11c0,2.1,0.7,4.1,2,5.6c0.1,1.8-1,4.5-2,6.4c2.6-0.5,6.3-1.5,8-2.5
	c1.4,0.3,2.8,0.5,4.1,0.5C19.2,21,24,16.1,24,11C24,5.2,18.3,1,12,1z M13,15c0,0.6-0.5,1-1,1c-0.6,0-1-0.5-1-1c0-0.6,0.5-1,1-1
	C12.6,14,13,14.4,13,15z M14.2,6.8C13.7,6.3,12.9,6,12.1,6c-1.8,0-2.9,1.3-2.9,3.2h1.6c0-1.2,0.7-1.6,1.3-1.6c0.5,0,1.1,0.3,1.1,1
	c0.1,0.7-0.3,1-0.8,1.5c-1.2,1.1-1.2,1.6-1.2,2.8h1.6c0-0.5,0-1,0.8-1.8c0.6-0.6,1.2-1.3,1.3-2.5C14.9,7.9,14.6,7.3,14.2,6.8z"/>
</svg>
