<svg width="30" height="29" viewBox="0 0 30 29" fill="none" xmlns="http://www.w3.org/2000/svg">
<path fill-rule="evenodd" clip-rule="evenodd" d="M15 2.625C10.6508 2.625 7.125 6.15076 7.125 10.5C7.125 14.8492 10.6508 18.375 15 18.375C19.3492 18.375 22.875 14.8492 22.875 10.5C22.875 6.15076 19.3492 2.625 15 2.625ZM4.875 10.5C4.875 4.90812 9.40812 0.375 15 0.375C20.5919 0.375 25.125 4.90812 25.125 10.5C25.125 16.0919 20.5919 20.625 15 20.625C9.40812 20.625 4.875 16.0919 4.875 10.5Z" fill="#2774AC"/>
<path fill-rule="evenodd" clip-rule="evenodd" d="M15.0002 20.6236C12.4327 20.6236 9.91052 21.2995 7.68711 22.5833C5.46369 23.8672 3.61741 25.7137 2.33389 27.9373C2.02328 28.4754 1.33526 28.6598 0.797153 28.3492C0.259045 28.0386 0.074622 27.3506 0.385233 26.8125C1.86622 24.2468 3.99653 22.1162 6.56202 20.6348C9.1275 19.1535 12.0377 18.3736 15.0002 18.3736C17.9626 18.3736 20.8729 19.1535 23.4384 20.6348C26.0038 22.1162 28.1342 24.2468 29.6151 26.8125C29.9258 27.3506 29.7413 28.0386 29.2032 28.3492C28.6651 28.6598 27.9771 28.4754 27.6665 27.9373C26.383 25.7137 24.5367 23.8672 22.3133 22.5833C20.0899 21.2995 17.5676 20.6236 15.0002 20.6236Z" fill="#2774AC"/>
</svg>
