<svg width="401" height="401" viewBox="0 0 401 401" fill="none" xmlns="http://www.w3.org/2000/svg">
<path d="M135.49 390.168C185.793 407.41 240.885 403.962 288.647 380.585C336.408 357.207 372.926 315.813 390.168 265.51C407.41 215.207 403.962 160.115 380.585 112.353C357.207 64.592 315.813 28.0737 265.51 10.832L245.628 68.8391C280.546 80.8077 309.28 106.157 325.508 139.312C341.737 172.466 344.13 210.709 332.161 245.628C320.192 280.546 294.843 309.28 261.688 325.508C228.534 341.737 190.291 344.13 155.372 332.161L135.49 390.168Z" fill="#2774AC"/>
<path d="M265.51 10.832C215.207 -6.40973 160.115 -2.96243 112.353 20.4155C64.592 43.7934 28.0737 85.187 10.832 135.49C-6.40973 185.793 -2.96244 240.885 20.4155 288.647C43.7934 336.408 85.187 372.926 135.49 390.168L155.372 332.161C120.454 320.192 91.7197 294.843 75.4916 261.688C59.2634 228.534 56.8705 190.291 68.8391 155.372C80.8076 120.454 106.157 91.7197 139.312 75.4916C172.466 59.2635 210.709 56.8705 245.628 68.839L265.51 10.832Z" fill="white"/>
</svg>
