<svg width="424" height="494" viewBox="0 0 424 494" fill="none" xmlns="http://www.w3.org/2000/svg">
<path d="M299.529 233.893V95.4648H226.727C203.484 95.4648 185.027 101.731 171.355 114.264C157.684 126.796 150.848 143.658 150.848 164.85C150.848 186.497 157.57 203.473 171.014 215.777C184.458 227.854 203.143 233.893 227.068 233.893H299.529ZM243.816 322.076L136.492 494H0.798828L124.188 304.303C93.4258 293.137 68.8164 275.25 50.3594 250.641C31.9023 226.031 22.6738 197.32 22.6738 164.508C22.6738 115.061 39.6497 75.4128 73.6016 45.5625C107.781 15.7122 154.266 0.787109 213.055 0.787109H423.602V494H299.529V322.076H243.816Z" fill="#FA1055"/>
</svg>
