<?xml version="1.0" encoding="utf-8"?>
<!-- Generator: Adobe Illustrator 25.4.1, SVG Export Plug-In . SVG Version: 6.00 Build 0)  -->
<svg version="1.1" id="Слой_1" xmlns="http://www.w3.org/2000/svg" xmlns:xlink="http://www.w3.org/1999/xlink" x="0px" y="0px"
	 viewBox="0 0 925 578.2" style="enable-background:new 0 0 925 578.2;" xml:space="preserve">
<style type="text/css">
	.st0{fill:#FA1055;}
	.st1{fill:#FFFFFF;}
	.st2{fill:none;stroke:#FFFFFF;stroke-width:2;}
</style>
<path class="st0" d="M759.5,233.1V94.7h-72.8c-23.2,0-41.7,6.3-55.4,18.8c-13.7,12.5-20.5,29.4-20.5,50.6c0,21.6,6.7,38.6,20.2,50.9
	c13.4,12.1,32.1,18.1,56.1,18.1H759.5z M703.8,321.3L596.5,493.2H460.8l123.4-189.7c-30.8-11.2-55.4-29.1-73.8-53.7
	c-18.5-24.6-27.7-53.3-27.7-86.1c0-49.4,17-89.1,50.9-118.9C567.8,14.9,614.3,0,673.1,0h210.5v493.2H759.5V321.3H703.8z"/>
<path class="st1" d="M148,568.2c0,5.5-4.5,10-10,10s-10-4.5-10-10s4.5-10,10-10S148,562.7,148,568.2z M129.6,568.2
	c0,4.7,3.8,8.4,8.4,8.4s8.4-3.8,8.4-8.4s-3.8-8.4-8.4-8.4S129.6,563.6,129.6,568.2z"/>
<path class="st1" d="M631,33.2c0,5.5-4.5,10-10,10s-10-4.5-10-10s4.5-10,10-10S631,27.7,631,33.2z M612.6,33.2
	c0,4.7,3.8,8.4,8.4,8.4s8.4-3.8,8.4-8.4s-3.8-8.4-8.4-8.4S612.6,28.6,612.6,33.2z"/>
<line class="st2" x1="0.5" y1="557.5" x2="225.9" y2="427.3"/>
<line class="st2" x1="683.5" y1="172.5" x2="908.9" y2="42.3"/>
</svg>
